<?xml version="1.0" standalone="no"?>
<!DOCTYPE svg PUBLIC "-//W3C//DTD SVG 20010904//EN"
 "http://www.w3.org/TR/2001/REC-SVG-20010904/DTD/svg10.dtd">
<svg version="1.0" xmlns="http://www.w3.org/2000/svg"
 width="436.000000pt" height="138.000000pt" viewBox="0 0 436.000000 138.000000"
 preserveAspectRatio="xMidYMid meet" shape-rendering="optimizeQuality">
<g transform="translate(0.000000,138.000000) scale(0.100000,-0.100000)"
fill="#fefefe" stroke="none">
<path shape-rendering="optimizeQuality" d="M0 690 l0 -690 300 0 300 0 0 105 0 105 -185 0 -185 0 0 205 0 205
145 0 145 0 0 105 0 105 -145 0 -145 0 0 175 0 175 185 0 185 0 0 100 0 100
-300 0 -300 0 0 -690z"/>
<path shape-rendering="optimizeQuality" d="M656 1363 c5 -23 204 -1341 204 -1353 0 -6 61 -10 149 -10 l149 0 21
143 c13 78 60 387 105 687 l82 545 -100 3 c-55 1 -102 -1 -105 -7 -3 -5 -35
-230 -71 -500 -35 -270 -67 -491 -70 -491 -3 0 -34 219 -69 488 -35 268 -66
493 -69 500 -3 8 -36 12 -117 12 -103 0 -113 -2 -109 -17z"/>
<path shape-rendering="optimizeQuality" d="M1460 690 l0 -690 300 0 300 0 0 105 0 105 -185 0 -185 0 0 205 0
205 145 0 145 0 0 105 0 105 -145 0 -145 0 0 175 0 175 185 0 185 0 0 100 0
100 -300 0 -300 0 0 -690z"/>
<path shape-rendering="optimizeQuality" d="M2335 1358 c-3 -13 -52 -313 -110 -668 -57 -355 -106 -655 -108 -667
-4 -23 -3 -23 103 -23 l106 0 18 135 19 135 118 0 c66 0 119 -2 119 -5 0 -10
31 -221 35 -242 5 -22 9 -23 115 -23 98 0 110 2 110 18 0 16 -205 1292 -215
1340 -5 22 -8 22 -155 22 -147 0 -150 0 -155 -22z m235 -875 c0 -10 -25 -13
-91 -13 l-91 0 6 27 c3 16 22 147 41 293 20 146 39 272 42 280 5 12 91 -538
93 -587z"/>
<path shape-rendering="optimizeQuality" d="M2960 690 l0 -690 110 0 110 0 0 279 0 278 103 5 c127 6 190 30 247
96 53 59 70 121 77 267 9 204 -23 327 -104 394 -65 54 -104 61 -335 61 l-208
0 0 -690z m364 480 c48 -18 58 -57 54 -212 -3 -139 -3 -140 -31 -164 -24 -20
-39 -24 -98 -24 l-69 0 0 205 0 205 59 0 c33 0 71 -4 85 -10z"/>
<path shape-rendering="optimizeQuality" d="M3710 691 l0 -691 115 0 115 0 0 279 0 278 106 6 c91 4 114 9 162 34
68 34 116 93 138 170 23 78 16 390 -10 447 -28 63 -62 101 -118 132 l-53 29
-227 3 -228 3 0 -690z m373 478 c40 -18 51 -48 55 -157 5 -132 -3 -188 -33
-218 -21 -21 -34 -24 -95 -24 l-70 0 0 205 0 205 60 0 c32 0 70 -5 83 -11z"/>
</g>
</svg>
